<svg xmlns="http://www.w3.org/2000/svg" viewBox="0 0 1179 966"><path d="M 1176,965 L 1177,965 Z" fill="black"/><path d="M 680,952 L 681,952 Z" fill="black"/><path d="M 664,944 L 665,944 Z" fill="black"/><path d="M 32,944 L 33,944 Z" fill="black"/><path d="M 40,936 L 40,938 L 42,936 Z" fill="black"/><path d="M 976,928 L 976,929 L 975,930 L 952,930 L 952,933 L 951,934 L 944,934 L 944,935 L 943,936 L 936,936 L 936,937 L 935,938 L 928,938 L 928,943 L 927,944 L 920,944 L 920,945 L 919,946 L 912,946 L 912,949 L 911,950 L 904,950 L 904,951 L 903,952 L 896,952 L 896,956 L 895,957 L 888,957 L 888,959 L 887,960 L 872,960 L 872,965 L 1167,965 L 1120,965 L 1119,964 L 1119,960 L 1112,960 L 1111,959 L 1111,958 L 1096,958 L 1095,957 L 1095,956 L 1088,956 L 1088,959 L 1087,960 L 1083,956 L 1083,955 L 1082,954 L 1079,954 L 1078,953 L 1076,953 L 1075,952 L 1071,952 L 1068,949 L 1067,949 L 1066,948 L 1065,948 L 1064,947 L 1063,947 L 1061,945 L 1060,945 L 1059,944 L 1056,944 L 1055,943 L 1055,941 L 1054,940 L 1048,940 L 1047,939 L 1047,938 L 1040,938 L 1039,937 L 1039,936 L 1032,936 L 1031,935 L 1031,934 L 1024,934 L 1023,933 L 1023,930 L 1016,930 L 1015,929 L 1015,928 Z" fill="black"/><path d="M 647,927 Z" fill="black"/><path d="M 44,927 Z" fill="black"/><path d="M 64,920 L 64,921 Z" fill="black"/><path d="M 607,911 Z" fill="black"/><path d="M 72,904 L 72,906 L 74,904 Z" fill="black"/><path d="M 560,864 L 560,865 Z" fill="black"/><path d="M 565,862 L 567,862 Z" fill="black"/><path d="M 560,860 L 567,860 Z" fill="black"/><path d="M 564,771 L 563,772 L 562,772 L 562,773 L 561,774 L 562,775 L 562,776 L 563,777 L 563,780 L 564,781 L 564,796 L 563,797 L 563,799 L 562,800 L 562,801 L 561,802 L 562,803 L 562,805 L 563,806 L 563,807 L 564,808 L 564,823 L 563,824 L 563,827 L 562,828 L 562,829 L 561,830 L 561,831 L 563,833 L 564,833 L 565,834 L 569,834 L 571,832 L 572,832 L 573,833 L 574,833 L 575,834 L 579,834 L 580,833 L 581,833 L 583,831 L 582,830 L 582,828 L 581,827 L 581,825 L 580,824 L 580,810 L 581,809 L 582,810 L 582,811 L 583,812 L 583,813 L 585,815 L 585,816 L 586,817 L 586,818 L 587,819 L 587,820 L 588,821 L 588,822 L 589,823 L 589,828 L 588,829 L 588,830 L 587,831 L 589,833 L 590,833 L 591,834 L 594,834 L 595,833 L 599,833 L 600,834 L 605,834 L 606,833 L 607,833 L 609,831 L 608,831 L 606,829 L 606,828 L 604,826 L 604,825 L 603,824 L 603,823 L 602,822 L 602,821 L 601,820 L 601,818 L 600,817 L 600,816 L 599,815 L 599,812 L 598,811 L 598,806 L 596,804 L 595,804 L 592,801 L 592,797 L 594,795 L 594,794 L 595,793 L 596,793 L 596,792 L 598,790 L 599,790 L 600,789 L 600,788 L 601,787 L 601,781 L 602,780 L 602,778 L 604,776 L 605,776 L 606,775 L 606,772 L 605,772 L 604,771 L 599,771 L 598,772 L 596,772 L 595,771 L 589,771 L 587,773 L 587,774 L 588,775 L 588,777 L 589,778 L 588,779 L 588,781 L 587,782 L 587,783 L 586,784 L 586,785 L 585,786 L 585,787 L 584,788 L 584,789 L 583,790 L 583,791 L 582,792 L 582,793 L 581,794 L 580,793 L 580,782 L 581,781 L 581,778 L 582,777 L 582,775 L 583,774 L 583,773 L 582,772 L 581,772 L 580,771 L 574,771 L 573,772 L 571,772 L 570,771 Z" fill="black"/><path d="M 600,768 Z" fill="black"/><path d="M 641,766 L 640,767 L 639,767 L 637,769 L 636,768 L 631,768 L 630,769 L 629,769 L 628,770 L 627,770 L 627,772 L 628,773 L 628,774 L 629,775 L 629,776 L 630,777 L 630,778 L 631,779 L 631,780 L 632,781 L 632,784 L 633,785 L 633,790 L 634,791 L 634,794 L 633,795 L 633,799 L 632,800 L 635,803 L 635,804 L 636,805 L 636,806 L 637,807 L 637,809 L 638,810 L 638,816 L 639,817 L 639,823 L 638,824 L 638,828 L 639,829 L 640,829 L 641,830 L 644,830 L 645,829 L 646,829 L 647,828 L 648,828 L 649,827 L 660,827 L 661,826 L 662,826 L 663,825 L 664,825 L 665,824 L 667,824 L 668,823 L 675,823 L 676,822 L 675,821 L 675,820 L 674,819 L 674,818 L 673,817 L 673,815 L 672,814 L 672,811 L 668,807 L 667,807 L 666,808 L 666,809 L 660,815 L 656,815 L 654,813 L 654,811 L 653,810 L 653,795 L 652,794 L 652,793 L 650,791 L 650,789 L 649,788 L 649,786 L 648,785 L 648,780 L 647,779 L 647,772 L 648,771 L 648,768 L 646,766 Z" fill="black"/><path d="M 462,745 L 461,746 L 458,746 L 457,747 L 456,747 L 455,748 L 454,748 L 448,754 L 448,756 L 446,758 L 446,766 L 447,767 L 447,769 L 448,770 L 448,771 L 451,774 L 451,775 L 452,776 L 452,778 L 451,779 L 451,781 L 452,782 L 454,782 L 456,784 L 457,783 L 458,784 L 458,785 L 459,785 L 460,786 L 460,793 L 457,796 L 454,796 L 453,795 L 451,795 L 449,793 L 448,793 L 442,787 L 442,786 L 441,785 L 441,783 L 440,782 L 440,779 L 438,779 L 435,782 L 435,783 L 434,784 L 434,787 L 433,788 L 432,788 L 431,789 L 430,789 L 430,790 L 429,791 L 429,792 L 428,793 L 428,794 L 429,794 L 430,795 L 431,794 L 432,794 L 433,795 L 434,795 L 440,801 L 440,802 L 441,801 L 443,803 L 444,803 L 445,804 L 446,804 L 447,805 L 448,805 L 449,806 L 451,806 L 452,807 L 462,807 L 463,806 L 465,806 L 466,805 L 467,805 L 469,803 L 470,803 L 472,801 L 472,800 L 474,798 L 474,796 L 475,795 L 475,793 L 476,792 L 476,786 L 475,785 L 475,783 L 474,782 L 474,781 L 472,779 L 472,778 L 470,776 L 470,775 L 469,774 L 469,773 L 468,772 L 468,770 L 467,769 L 465,769 L 461,765 L 461,764 L 460,763 L 460,761 L 461,760 L 461,759 L 463,757 L 465,757 L 466,756 L 467,756 L 468,757 L 469,757 L 473,761 L 473,762 L 474,763 L 474,766 L 475,767 L 475,768 L 477,768 L 481,764 L 481,763 L 482,762 L 483,762 L 485,760 L 485,759 L 486,758 L 486,756 L 484,756 L 483,755 L 482,755 L 481,754 L 481,753 L 477,749 L 476,749 L 475,748 L 474,748 L 473,747 L 472,747 L 471,746 L 468,746 L 467,745 Z" fill="black"/><path d="M 714,744 L 711,747 L 710,747 L 709,748 L 705,748 L 704,749 L 699,749 L 698,750 L 697,750 L 695,752 L 694,752 L 691,755 L 685,755 L 684,756 L 683,756 L 682,757 L 682,758 L 681,759 L 681,760 L 684,763 L 684,764 L 687,767 L 687,768 L 688,769 L 688,770 L 689,771 L 689,772 L 690,773 L 690,776 L 691,777 L 691,778 L 692,779 L 692,786 L 693,787 L 693,788 L 697,792 L 697,793 L 698,794 L 698,795 L 699,796 L 699,797 L 700,798 L 700,800 L 701,801 L 701,803 L 702,804 L 702,812 L 704,814 L 707,814 L 708,813 L 710,813 L 713,810 L 715,810 L 716,809 L 721,809 L 722,808 L 723,808 L 724,807 L 725,807 L 727,805 L 728,805 L 730,803 L 731,803 L 732,802 L 733,802 L 734,801 L 737,801 L 738,800 L 738,799 L 737,798 L 737,797 L 735,795 L 735,791 L 732,788 L 731,788 L 730,787 L 728,787 L 727,788 L 727,789 L 726,790 L 726,792 L 724,794 L 723,794 L 721,796 L 717,796 L 713,792 L 713,790 L 712,789 L 712,784 L 715,781 L 716,781 L 717,780 L 720,780 L 721,781 L 725,781 L 725,778 L 724,777 L 724,776 L 722,774 L 722,770 L 720,768 L 718,768 L 718,769 L 713,774 L 708,774 L 705,771 L 705,769 L 704,768 L 704,767 L 703,766 L 703,762 L 705,760 L 706,760 L 707,759 L 714,759 L 715,760 L 716,760 L 717,761 L 719,759 L 719,753 L 718,752 L 718,751 L 717,750 L 717,746 L 715,744 Z" fill="black"/><path d="M 749,724 L 748,725 L 746,725 L 743,728 L 743,729 L 742,730 L 738,730 L 737,731 L 736,731 L 734,733 L 734,736 L 735,737 L 735,738 L 736,738 L 743,745 L 743,746 L 745,748 L 745,749 L 746,750 L 746,752 L 748,754 L 748,756 L 749,757 L 749,761 L 750,761 L 757,768 L 757,769 L 759,771 L 759,772 L 761,774 L 761,775 L 762,776 L 762,778 L 763,779 L 763,781 L 764,782 L 764,785 L 765,786 L 768,786 L 769,785 L 771,785 L 773,783 L 773,782 L 774,781 L 776,781 L 777,780 L 779,780 L 782,777 L 782,774 L 773,765 L 773,764 L 772,763 L 772,762 L 770,760 L 770,759 L 769,758 L 769,757 L 768,756 L 768,751 L 767,750 L 767,749 L 766,749 L 761,744 L 761,743 L 760,743 L 759,742 L 759,741 L 757,739 L 757,738 L 756,737 L 756,736 L 755,735 L 755,734 L 754,733 L 754,731 L 753,730 L 753,726 L 751,724 Z" fill="black"/><path d="M 872,719 L 863,728 L 862,728 L 862,729 L 840,751 L 840,760 L 842,762 L 851,762 L 852,761 L 853,761 L 880,734 L 880,733 L 881,732 L 882,732 L 883,731 L 883,724 L 878,719 Z" fill="black"/><path d="M 403,709 L 402,710 L 402,713 L 401,714 L 401,715 L 400,716 L 400,717 L 399,718 L 399,720 L 397,722 L 397,723 L 395,725 L 395,726 L 393,728 L 392,728 L 392,729 L 389,732 L 388,732 L 387,733 L 386,733 L 386,737 L 385,738 L 385,740 L 383,742 L 383,743 L 382,744 L 382,745 L 380,747 L 380,748 L 374,754 L 373,753 L 374,754 L 372,756 L 371,756 L 370,757 L 370,758 L 371,759 L 371,760 L 374,763 L 376,763 L 377,764 L 379,764 L 380,765 L 380,766 L 385,771 L 386,771 L 387,772 L 389,772 L 390,773 L 391,773 L 392,774 L 394,774 L 396,776 L 397,776 L 400,779 L 401,779 L 402,778 L 402,777 L 403,776 L 403,775 L 405,773 L 405,772 L 406,771 L 406,770 L 407,769 L 407,765 L 406,764 L 404,764 L 403,765 L 400,765 L 399,764 L 397,764 L 395,762 L 394,762 L 393,761 L 393,760 L 392,759 L 392,757 L 393,756 L 393,755 L 396,752 L 396,751 L 398,749 L 403,749 L 407,753 L 407,754 L 408,755 L 408,757 L 409,758 L 410,758 L 411,757 L 411,756 L 413,754 L 413,752 L 417,748 L 417,745 L 416,745 L 415,746 L 414,746 L 413,745 L 411,745 L 410,744 L 409,744 L 408,743 L 409,742 L 408,743 L 406,741 L 406,736 L 407,735 L 408,736 L 407,735 L 408,734 L 408,733 L 412,729 L 415,729 L 416,730 L 417,730 L 418,731 L 418,732 L 421,735 L 421,736 L 422,737 L 422,740 L 423,741 L 424,740 L 426,740 L 427,739 L 428,739 L 429,738 L 429,737 L 430,736 L 430,735 L 434,731 L 434,730 L 435,729 L 434,729 L 433,728 L 431,728 L 421,718 L 420,718 L 419,717 L 418,717 L 417,716 L 415,716 L 414,715 L 413,715 L 411,713 L 411,712 L 409,710 L 407,710 L 406,709 Z" fill="black"/><path d="M 776,704 Z" fill="black"/><path d="M 96,704 L 96,707 L 97,706 L 97,704 Z" fill="black"/><path d="M 796,690 L 795,691 L 793,691 L 792,692 L 790,692 L 788,694 L 787,694 L 779,702 L 779,703 L 778,704 L 778,705 L 777,706 L 776,706 L 775,707 L 774,707 L 773,708 L 772,708 L 770,710 L 770,712 L 769,713 L 769,714 L 770,715 L 771,715 L 772,716 L 773,716 L 776,719 L 777,719 L 782,724 L 782,725 L 783,725 L 784,726 L 784,727 L 786,729 L 786,730 L 787,731 L 787,732 L 788,733 L 788,736 L 790,736 L 791,737 L 792,737 L 794,739 L 795,739 L 798,742 L 799,741 L 799,731 L 800,730 L 800,726 L 801,725 L 801,721 L 800,721 L 791,712 L 791,708 L 795,704 L 797,704 L 798,705 L 799,705 L 803,709 L 803,710 L 804,711 L 806,711 L 807,710 L 807,709 L 809,707 L 809,706 L 811,704 L 811,703 L 813,701 L 813,699 L 805,691 L 804,691 L 803,690 Z" fill="black"/><path d="M 927,667 Z" fill="black"/><path d="M 358,665 L 357,666 L 357,667 L 356,668 L 356,669 L 354,671 L 354,672 L 348,678 L 348,679 L 347,680 L 346,680 L 343,683 L 342,683 L 341,684 L 340,684 L 339,685 L 337,685 L 336,686 L 336,688 L 334,690 L 334,691 L 333,692 L 333,693 L 327,699 L 326,699 L 323,702 L 322,702 L 321,703 L 320,703 L 319,704 L 318,704 L 317,705 L 316,705 L 316,707 L 317,708 L 317,710 L 319,712 L 320,712 L 321,713 L 322,713 L 325,716 L 325,717 L 326,718 L 326,719 L 327,720 L 327,721 L 333,727 L 334,727 L 336,729 L 337,729 L 338,730 L 339,730 L 340,731 L 344,731 L 345,732 L 346,731 L 350,731 L 352,729 L 353,729 L 355,727 L 356,727 L 357,726 L 359,726 L 360,725 L 360,723 L 361,722 L 361,721 L 362,720 L 362,719 L 363,718 L 363,713 L 364,712 L 365,713 L 368,713 L 369,712 L 370,712 L 373,709 L 377,709 L 378,708 L 378,705 L 380,703 L 380,702 L 382,700 L 382,699 L 383,698 L 383,693 L 382,692 L 382,689 L 381,688 L 381,686 L 378,683 L 378,682 L 372,676 L 371,676 L 370,675 L 369,675 L 368,674 L 367,674 L 365,672 L 365,670 L 364,669 L 364,668 L 362,666 L 360,666 L 359,665 Z" fill="black"/><path d="M 299,662 Z" fill="black"/><path d="M 933,655 Z" fill="black"/><path d="M 934,652 L 934,653 Z" fill="black"/><path d="M 827,652 L 826,653 L 825,653 L 824,654 L 824,655 L 822,657 L 822,660 L 821,661 L 819,661 L 819,662 L 817,664 L 817,665 L 816,666 L 816,670 L 817,670 L 818,671 L 820,671 L 821,672 L 822,672 L 823,673 L 825,673 L 826,674 L 827,674 L 828,675 L 829,675 L 831,677 L 832,677 L 835,680 L 836,680 L 838,682 L 839,682 L 840,681 L 843,681 L 844,680 L 846,680 L 847,679 L 850,679 L 851,678 L 857,678 L 857,677 L 852,672 L 852,670 L 851,669 L 850,669 L 849,670 L 848,669 L 846,669 L 845,668 L 844,668 L 841,665 L 840,665 L 837,662 L 836,662 L 834,660 L 834,659 L 832,657 L 832,656 L 831,656 L 830,655 L 830,654 L 828,652 Z" fill="black"/><path d="M 939,647 Z" fill="black"/><path d="M 832,640 Z" fill="black"/><path d="M 1032,639 L 1039,639 Z" fill="black"/><path d="M 1080,632 L 1087,632 Z" fill="black"/><path d="M 842,632 L 841,633 L 839,633 L 838,634 L 838,635 L 837,636 L 837,638 L 831,644 L 831,649 L 833,649 L 834,650 L 836,650 L 837,651 L 839,651 L 840,652 L 841,652 L 843,654 L 844,654 L 847,657 L 848,657 L 850,659 L 851,659 L 853,661 L 853,662 L 854,663 L 854,664 L 855,665 L 859,665 L 860,666 L 861,666 L 864,669 L 865,669 L 870,674 L 870,678 L 872,678 L 873,679 L 876,679 L 877,680 L 882,680 L 882,678 L 883,677 L 883,670 L 882,669 L 882,667 L 881,666 L 881,665 L 879,663 L 879,662 L 877,660 L 876,660 L 873,657 L 872,657 L 867,652 L 867,650 L 866,649 L 861,649 L 859,647 L 858,647 L 855,644 L 854,644 L 845,635 L 845,634 L 844,633 L 844,632 Z" fill="black"/><path d="M 1070,631 L 1071,631 Z" fill="black"/><path d="M 1112,624 L 1119,624 Z" fill="black"/><path d="M 325,618 L 324,619 L 324,620 L 318,626 L 317,626 L 314,629 L 313,629 L 311,631 L 309,631 L 308,632 L 307,632 L 306,633 L 301,633 L 301,634 L 299,636 L 299,637 L 295,641 L 294,641 L 292,643 L 291,643 L 290,644 L 289,644 L 287,646 L 285,646 L 284,647 L 282,647 L 281,648 L 278,648 L 277,649 L 277,654 L 278,655 L 278,656 L 279,657 L 280,657 L 283,660 L 283,662 L 284,663 L 284,665 L 285,666 L 285,667 L 294,676 L 294,677 L 295,678 L 295,680 L 296,681 L 298,681 L 302,677 L 303,677 L 305,675 L 306,675 L 306,674 L 307,673 L 307,669 L 305,669 L 304,668 L 303,668 L 302,667 L 301,667 L 297,663 L 297,662 L 296,661 L 296,659 L 300,655 L 301,655 L 302,654 L 303,654 L 304,653 L 308,653 L 309,654 L 310,654 L 312,656 L 312,658 L 313,659 L 313,662 L 312,663 L 314,665 L 315,665 L 317,663 L 317,662 L 319,660 L 322,660 L 323,659 L 324,659 L 325,658 L 325,656 L 324,656 L 323,655 L 322,655 L 321,654 L 320,654 L 317,651 L 317,650 L 316,649 L 316,647 L 317,646 L 317,645 L 318,644 L 319,644 L 321,642 L 322,642 L 324,640 L 328,640 L 331,643 L 331,644 L 332,645 L 332,652 L 331,653 L 333,655 L 337,655 L 338,654 L 339,654 L 340,653 L 341,653 L 341,652 L 342,651 L 344,651 L 345,650 L 346,650 L 347,649 L 347,648 L 344,645 L 344,644 L 342,642 L 342,640 L 341,639 L 341,638 L 340,637 L 340,635 L 339,634 L 339,633 L 338,632 L 338,631 L 336,629 L 335,629 L 332,626 L 332,622 L 330,620 L 330,619 L 329,618 Z" fill="black"/><path d="M 1160,608 L 1160,609 L 1161,608 Z" fill="black"/><path d="M 1127,605 L 1125,607 L 1127,607 Z" fill="black"/><path d="M 1168,592 L 1168,593 L 1170,593 L 1170,592 Z" fill="black"/><path d="M 316,586 Z" fill="black"/><path d="M 310,579 L 309,580 L 308,580 L 304,584 L 303,584 L 301,586 L 300,586 L 299,587 L 298,587 L 297,588 L 295,588 L 294,589 L 293,589 L 292,590 L 289,590 L 288,591 L 281,591 L 281,592 L 277,596 L 276,596 L 275,597 L 274,597 L 273,598 L 272,598 L 271,599 L 269,599 L 268,600 L 267,600 L 266,601 L 261,601 L 260,602 L 256,602 L 255,603 L 255,607 L 256,608 L 256,610 L 259,613 L 259,618 L 262,621 L 263,621 L 264,622 L 269,617 L 270,617 L 272,615 L 273,615 L 274,614 L 275,614 L 276,613 L 278,613 L 279,612 L 280,612 L 281,611 L 284,611 L 285,610 L 291,610 L 296,605 L 297,605 L 298,604 L 299,604 L 300,603 L 301,603 L 302,602 L 304,602 L 305,601 L 306,601 L 307,600 L 312,600 L 313,599 L 317,599 L 318,598 L 318,593 L 317,592 L 317,591 L 314,588 L 314,584 L 313,583 L 313,582 Z" fill="black"/><path d="M 864,576 Z" fill="black"/><path d="M 870,572 L 868,574 L 868,575 L 867,576 L 867,581 L 866,582 L 865,582 L 864,583 L 864,584 L 863,585 L 863,590 L 864,591 L 865,591 L 866,590 L 868,590 L 869,591 L 872,591 L 873,592 L 876,592 L 878,594 L 880,594 L 881,595 L 882,595 L 883,596 L 883,597 L 882,598 L 879,598 L 878,599 L 875,599 L 874,600 L 871,600 L 870,601 L 866,601 L 865,600 L 864,600 L 861,597 L 860,597 L 859,598 L 858,598 L 857,599 L 857,600 L 856,601 L 856,606 L 855,607 L 854,607 L 854,608 L 853,609 L 853,610 L 852,611 L 852,614 L 853,615 L 853,616 L 859,616 L 860,617 L 864,617 L 865,618 L 867,618 L 868,619 L 869,619 L 870,620 L 871,620 L 872,621 L 873,621 L 874,622 L 875,622 L 877,624 L 877,625 L 879,627 L 886,627 L 887,628 L 890,628 L 891,629 L 893,629 L 895,631 L 897,631 L 899,633 L 900,633 L 906,639 L 907,639 L 908,638 L 909,638 L 911,636 L 911,630 L 915,626 L 915,621 L 914,620 L 909,620 L 908,619 L 903,619 L 902,618 L 901,618 L 900,617 L 898,617 L 897,616 L 896,616 L 895,615 L 894,615 L 893,614 L 892,614 L 888,610 L 889,609 L 892,609 L 893,608 L 896,608 L 897,607 L 899,607 L 900,606 L 909,606 L 910,607 L 911,607 L 912,608 L 913,608 L 918,613 L 919,612 L 920,612 L 921,611 L 921,610 L 922,609 L 922,605 L 925,602 L 925,601 L 926,600 L 926,596 L 925,595 L 920,595 L 919,594 L 916,594 L 915,593 L 913,593 L 912,592 L 910,592 L 909,591 L 908,591 L 907,590 L 906,590 L 905,589 L 904,589 L 899,584 L 892,584 L 891,583 L 889,583 L 888,582 L 885,582 L 884,581 L 883,581 L 881,579 L 880,579 L 879,578 L 878,578 L 872,572 Z" fill="black"/><path d="M 293,526 L 292,527 L 291,527 L 289,529 L 288,529 L 287,530 L 286,530 L 285,531 L 282,531 L 281,532 L 279,532 L 278,533 L 268,533 L 267,532 L 266,532 L 264,534 L 263,534 L 261,536 L 260,536 L 259,537 L 258,537 L 257,538 L 254,538 L 253,539 L 248,539 L 247,540 L 242,540 L 241,539 L 238,539 L 237,540 L 237,547 L 239,549 L 239,550 L 240,551 L 240,560 L 241,561 L 241,563 L 242,564 L 242,565 L 243,566 L 243,567 L 244,568 L 244,569 L 245,570 L 245,573 L 244,574 L 245,575 L 245,576 L 247,576 L 248,575 L 249,575 L 251,573 L 255,573 L 256,572 L 257,572 L 259,570 L 259,569 L 260,568 L 260,567 L 259,566 L 258,566 L 256,564 L 255,564 L 253,562 L 253,561 L 252,560 L 252,557 L 255,554 L 257,554 L 258,553 L 262,553 L 263,552 L 268,552 L 269,553 L 272,553 L 275,550 L 276,550 L 277,549 L 278,549 L 279,548 L 281,548 L 282,547 L 286,547 L 287,546 L 298,546 L 299,547 L 299,546 L 300,545 L 300,539 L 299,538 L 299,537 L 297,535 L 297,534 L 298,533 L 298,530 L 297,529 L 297,527 L 296,526 Z" fill="black"/><path d="M 903,515 L 902,516 L 890,516 L 889,517 L 887,517 L 882,522 L 882,523 L 881,524 L 881,525 L 880,526 L 880,530 L 879,531 L 879,540 L 880,541 L 880,544 L 881,545 L 881,546 L 883,548 L 883,549 L 884,550 L 885,550 L 887,552 L 888,552 L 889,553 L 891,553 L 892,554 L 894,554 L 895,555 L 900,555 L 901,556 L 903,556 L 906,559 L 907,559 L 908,558 L 916,558 L 917,559 L 923,559 L 924,560 L 927,560 L 928,559 L 930,559 L 931,558 L 932,558 L 933,557 L 934,557 L 937,554 L 937,553 L 938,552 L 938,551 L 939,550 L 939,549 L 940,548 L 940,546 L 941,545 L 941,542 L 942,541 L 942,536 L 941,535 L 941,531 L 940,530 L 940,528 L 939,527 L 939,526 L 938,525 L 938,523 L 937,522 L 937,521 L 936,521 L 935,522 L 929,522 L 928,521 L 924,521 L 923,520 L 920,520 L 919,519 L 918,519 L 914,515 L 912,517 L 912,518 L 911,519 L 911,525 L 910,526 L 910,533 L 909,534 L 909,537 L 915,537 L 916,538 L 919,538 L 919,537 L 922,534 L 923,535 L 926,535 L 927,536 L 928,536 L 930,538 L 930,541 L 929,542 L 929,543 L 927,545 L 921,545 L 920,544 L 915,544 L 913,542 L 912,542 L 910,540 L 908,540 L 907,541 L 900,541 L 899,540 L 895,540 L 894,539 L 893,539 L 892,538 L 892,537 L 891,536 L 891,533 L 894,530 L 899,530 L 902,533 L 903,533 L 904,532 L 905,532 L 905,529 L 906,528 L 906,525 L 905,524 L 905,522 L 906,521 L 906,517 L 904,515 Z" fill="black"/><path d="M 912,448 Z" fill="black"/><path d="M 468,432 Z" fill="black"/><path d="M 704,424 Z" fill="black"/><path d="M 912,416 Z" fill="black"/><path d="M 256,400 L 255,401 L 253,401 L 250,404 L 250,405 L 248,407 L 248,410 L 247,411 L 247,415 L 248,416 L 248,419 L 249,420 L 249,422 L 250,423 L 250,424 L 252,426 L 250,428 L 249,427 L 247,427 L 246,426 L 245,426 L 244,425 L 242,425 L 241,424 L 238,424 L 237,423 L 225,423 L 224,424 L 222,424 L 221,425 L 220,425 L 219,426 L 218,426 L 217,427 L 216,427 L 213,430 L 214,431 L 214,433 L 217,436 L 217,437 L 218,438 L 219,438 L 222,441 L 223,441 L 224,442 L 226,442 L 227,443 L 230,443 L 231,444 L 250,444 L 251,445 L 250,446 L 249,446 L 247,448 L 246,448 L 245,449 L 244,448 L 245,449 L 244,450 L 244,451 L 242,453 L 242,454 L 240,456 L 240,466 L 241,467 L 241,468 L 242,469 L 242,470 L 243,471 L 244,471 L 246,473 L 251,473 L 252,474 L 253,473 L 257,473 L 258,472 L 259,472 L 264,467 L 264,466 L 265,465 L 265,464 L 266,463 L 266,460 L 264,460 L 263,461 L 258,461 L 257,460 L 257,459 L 256,458 L 256,457 L 257,456 L 257,455 L 258,454 L 258,453 L 259,452 L 259,451 L 261,449 L 262,449 L 263,448 L 264,448 L 265,449 L 264,450 L 265,450 L 266,451 L 267,451 L 268,452 L 269,452 L 270,451 L 271,451 L 271,449 L 272,448 L 272,447 L 273,446 L 277,450 L 277,454 L 276,455 L 276,457 L 280,457 L 281,456 L 282,456 L 282,455 L 283,454 L 283,453 L 284,452 L 284,450 L 285,449 L 287,449 L 288,448 L 290,448 L 292,446 L 293,446 L 293,445 L 294,444 L 294,440 L 289,435 L 288,435 L 287,434 L 287,430 L 286,429 L 286,428 L 285,427 L 285,426 L 284,425 L 283,425 L 282,424 L 281,425 L 281,430 L 279,432 L 277,432 L 276,433 L 275,433 L 274,432 L 274,431 L 275,430 L 274,429 L 274,428 L 273,427 L 269,427 L 267,429 L 267,431 L 266,432 L 265,431 L 265,429 L 264,428 L 264,426 L 263,425 L 263,423 L 262,422 L 262,419 L 263,418 L 263,417 L 265,415 L 268,415 L 270,417 L 271,417 L 272,418 L 273,418 L 273,413 L 272,412 L 272,409 L 271,408 L 271,407 L 266,402 L 265,402 L 264,401 L 261,401 L 260,400 Z" fill="black"/><path d="M 917,390 L 916,391 L 914,391 L 913,392 L 912,392 L 907,397 L 907,399 L 906,400 L 906,402 L 905,403 L 905,408 L 907,408 L 909,406 L 910,406 L 911,405 L 913,405 L 915,407 L 915,408 L 916,409 L 916,412 L 915,413 L 915,415 L 914,416 L 914,419 L 913,420 L 913,421 L 912,422 L 911,421 L 911,419 L 909,417 L 906,417 L 905,418 L 904,418 L 904,422 L 903,423 L 902,423 L 901,422 L 900,422 L 897,419 L 897,418 L 898,417 L 898,415 L 897,415 L 896,414 L 895,415 L 894,415 L 892,417 L 892,419 L 891,420 L 891,424 L 889,426 L 888,426 L 886,428 L 885,428 L 885,429 L 884,430 L 884,434 L 886,436 L 886,437 L 887,437 L 888,438 L 890,438 L 891,439 L 893,439 L 894,440 L 894,442 L 895,443 L 895,444 L 898,447 L 902,447 L 902,445 L 901,444 L 901,440 L 904,437 L 905,437 L 906,438 L 906,439 L 907,440 L 907,441 L 908,441 L 909,442 L 910,442 L 911,441 L 913,441 L 913,440 L 914,439 L 914,438 L 915,437 L 918,440 L 918,441 L 920,443 L 920,444 L 921,445 L 921,446 L 922,447 L 922,448 L 921,449 L 921,450 L 920,451 L 915,451 L 914,450 L 912,450 L 912,452 L 913,453 L 913,454 L 914,455 L 914,457 L 919,462 L 920,462 L 921,463 L 924,463 L 925,464 L 928,464 L 929,463 L 932,463 L 933,462 L 934,462 L 937,459 L 937,458 L 938,457 L 938,453 L 939,452 L 939,450 L 938,449 L 938,446 L 937,445 L 937,444 L 935,442 L 935,441 L 931,437 L 930,437 L 928,435 L 929,434 L 948,434 L 949,433 L 952,433 L 953,432 L 954,432 L 955,431 L 956,431 L 958,429 L 959,429 L 963,425 L 963,424 L 964,423 L 964,422 L 965,421 L 965,420 L 962,417 L 961,417 L 960,416 L 959,416 L 958,415 L 957,415 L 956,414 L 954,414 L 953,413 L 941,413 L 940,414 L 938,414 L 937,415 L 934,415 L 933,416 L 932,416 L 931,417 L 930,417 L 929,418 L 928,418 L 927,419 L 926,419 L 925,418 L 926,417 L 926,416 L 929,413 L 929,411 L 930,410 L 930,408 L 931,407 L 931,399 L 930,398 L 930,397 L 929,396 L 929,395 L 926,392 L 925,392 L 924,391 L 923,391 L 922,390 Z" fill="black"/><path d="M 1120,312 Z" fill="black"/><path d="M 951,311 Z" fill="black"/><path d="M 259,306 L 256,309 L 256,311 L 255,312 L 255,315 L 251,319 L 251,324 L 252,325 L 255,325 L 256,326 L 258,326 L 261,329 L 262,329 L 264,331 L 263,332 L 264,331 L 269,336 L 269,337 L 271,339 L 271,340 L 273,342 L 273,343 L 274,344 L 275,344 L 276,345 L 277,345 L 278,346 L 279,346 L 280,347 L 281,347 L 290,356 L 290,357 L 292,359 L 292,360 L 293,361 L 293,362 L 294,363 L 294,364 L 295,365 L 297,365 L 299,363 L 299,362 L 301,360 L 301,356 L 304,353 L 304,352 L 305,351 L 305,347 L 304,346 L 299,346 L 298,345 L 297,345 L 296,344 L 295,344 L 290,339 L 290,337 L 289,336 L 289,335 L 290,334 L 290,332 L 294,328 L 296,328 L 297,327 L 300,327 L 301,328 L 303,328 L 304,329 L 305,329 L 308,332 L 309,332 L 311,334 L 312,334 L 313,333 L 313,332 L 314,331 L 314,330 L 315,329 L 315,326 L 318,323 L 318,322 L 319,321 L 319,315 L 318,314 L 317,314 L 316,315 L 314,315 L 313,316 L 309,316 L 308,317 L 303,317 L 302,316 L 298,316 L 297,315 L 295,315 L 294,314 L 293,314 L 292,313 L 291,313 L 290,312 L 284,312 L 283,313 L 273,313 L 272,312 L 268,312 L 267,311 L 266,311 L 265,310 L 264,310 L 263,309 L 262,309 Z" fill="black"/><path d="M 984,304 L 991,304 Z" fill="black"/><path d="M 951,304 L 951,305 Z" fill="black"/><path d="M 947,304 L 947,307 L 948,308 L 948,305 Z" fill="black"/><path d="M 942,296 Z" fill="black"/><path d="M 901,294 L 898,297 L 897,297 L 896,298 L 895,298 L 894,299 L 892,299 L 891,300 L 875,300 L 874,299 L 873,299 L 872,300 L 871,300 L 870,301 L 869,301 L 868,302 L 867,302 L 866,303 L 865,303 L 864,304 L 859,304 L 858,305 L 852,305 L 851,304 L 847,304 L 846,303 L 843,303 L 843,309 L 844,310 L 844,311 L 847,314 L 847,316 L 848,317 L 848,319 L 849,320 L 849,321 L 850,321 L 851,322 L 852,322 L 856,318 L 857,318 L 859,316 L 861,316 L 862,315 L 866,315 L 867,316 L 868,316 L 872,320 L 872,321 L 873,322 L 873,325 L 872,326 L 872,327 L 870,329 L 870,330 L 868,332 L 867,332 L 866,333 L 864,333 L 863,334 L 859,334 L 858,335 L 858,339 L 859,340 L 859,341 L 862,344 L 862,347 L 863,348 L 863,349 L 865,351 L 865,352 L 866,352 L 867,353 L 868,353 L 869,352 L 869,351 L 870,350 L 870,349 L 871,348 L 871,347 L 873,345 L 873,344 L 874,343 L 874,342 L 880,336 L 881,336 L 884,333 L 885,333 L 886,332 L 888,332 L 890,330 L 890,329 L 891,328 L 891,327 L 892,326 L 892,325 L 895,322 L 895,321 L 901,315 L 902,315 L 903,314 L 904,314 L 905,313 L 906,313 L 907,312 L 910,312 L 911,311 L 911,305 L 909,303 L 908,303 L 907,302 L 907,298 L 906,297 L 906,296 L 904,294 Z" fill="black"/><path d="M 1019,287 L 1020,287 Z" fill="black"/><path d="M 995,287 L 996,287 Z" fill="black"/><path d="M 935,282 Z" fill="black"/><path d="M 934,280 Z" fill="black"/><path d="M 932,280 Z" fill="black"/><path d="M 333,274 Z" fill="black"/><path d="M 824,240 Z" fill="black"/><path d="M 296,240 Z" fill="black"/><path d="M 579,230 L 578,231 L 576,231 L 574,233 L 573,233 L 572,234 L 571,234 L 567,238 L 566,238 L 564,240 L 564,241 L 563,242 L 562,242 L 562,243 L 559,246 L 558,246 L 558,247 L 556,249 L 556,250 L 552,254 L 552,255 L 549,258 L 549,259 L 547,261 L 547,262 L 546,263 L 546,265 L 545,266 L 545,267 L 544,268 L 544,269 L 542,271 L 542,272 L 538,276 L 525,276 L 524,277 L 522,277 L 521,278 L 519,278 L 518,279 L 518,280 L 517,281 L 517,282 L 516,283 L 516,293 L 517,294 L 517,297 L 518,298 L 518,300 L 519,301 L 519,302 L 520,303 L 520,305 L 521,306 L 521,307 L 523,309 L 523,310 L 524,311 L 524,313 L 525,314 L 525,315 L 526,316 L 526,318 L 528,320 L 528,323 L 529,324 L 529,326 L 528,327 L 528,328 L 527,329 L 526,329 L 525,330 L 520,330 L 519,329 L 517,329 L 516,328 L 514,328 L 512,326 L 511,326 L 510,325 L 509,325 L 507,323 L 506,323 L 505,322 L 504,322 L 503,321 L 502,321 L 501,320 L 500,320 L 499,319 L 498,319 L 497,318 L 495,318 L 494,317 L 490,317 L 489,316 L 481,316 L 480,317 L 478,317 L 477,318 L 476,318 L 474,320 L 474,321 L 473,322 L 473,324 L 472,325 L 472,329 L 471,330 L 471,335 L 470,336 L 470,338 L 468,340 L 468,341 L 465,344 L 464,344 L 464,345 L 463,346 L 462,346 L 458,350 L 457,350 L 455,352 L 454,352 L 453,353 L 452,353 L 448,357 L 447,357 L 444,360 L 443,360 L 436,367 L 436,368 L 434,370 L 434,371 L 433,372 L 433,375 L 432,376 L 432,380 L 433,381 L 433,385 L 434,386 L 434,387 L 435,388 L 435,389 L 436,389 L 437,390 L 437,391 L 438,392 L 438,393 L 443,398 L 443,399 L 444,400 L 445,400 L 446,401 L 446,402 L 447,402 L 448,403 L 448,404 L 453,409 L 453,410 L 454,410 L 456,412 L 456,413 L 457,413 L 459,415 L 459,416 L 463,420 L 464,420 L 465,421 L 465,422 L 468,425 L 468,426 L 469,427 L 469,428 L 471,430 L 471,434 L 470,435 L 469,435 L 468,434 L 467,434 L 466,433 L 466,432 L 465,431 L 465,429 L 464,428 L 464,427 L 461,424 L 461,423 L 458,420 L 458,419 L 456,417 L 456,416 L 455,416 L 453,414 L 453,413 L 452,413 L 451,412 L 451,411 L 450,411 L 449,410 L 449,409 L 448,408 L 447,409 L 445,407 L 444,407 L 443,406 L 442,406 L 441,405 L 435,405 L 434,406 L 431,406 L 429,408 L 428,408 L 427,409 L 426,409 L 419,416 L 419,417 L 414,422 L 414,423 L 412,425 L 412,426 L 410,428 L 410,429 L 409,430 L 409,431 L 408,432 L 408,433 L 406,435 L 398,435 L 397,436 L 395,436 L 392,439 L 392,440 L 391,441 L 391,442 L 390,443 L 390,448 L 391,449 L 391,452 L 392,453 L 392,456 L 393,457 L 393,458 L 394,459 L 394,461 L 396,463 L 396,465 L 397,466 L 397,467 L 396,468 L 395,468 L 393,466 L 392,466 L 390,464 L 388,464 L 386,462 L 384,462 L 383,461 L 381,461 L 380,460 L 371,460 L 370,461 L 369,461 L 368,462 L 367,462 L 364,465 L 364,466 L 363,467 L 363,470 L 362,471 L 362,473 L 361,474 L 362,475 L 361,476 L 361,477 L 359,479 L 358,479 L 355,482 L 354,482 L 351,485 L 350,485 L 347,488 L 346,488 L 341,493 L 341,494 L 339,496 L 339,497 L 338,498 L 338,501 L 337,502 L 337,504 L 338,505 L 338,509 L 339,510 L 339,511 L 340,512 L 340,513 L 342,515 L 342,516 L 346,520 L 346,521 L 347,521 L 354,528 L 354,529 L 360,535 L 360,536 L 362,538 L 362,541 L 363,542 L 363,547 L 364,548 L 364,549 L 367,552 L 368,552 L 369,553 L 371,553 L 372,554 L 374,554 L 375,553 L 380,553 L 381,552 L 382,552 L 383,551 L 384,551 L 385,550 L 387,550 L 388,549 L 389,549 L 390,548 L 391,548 L 392,547 L 393,547 L 394,546 L 395,546 L 396,545 L 397,545 L 398,544 L 399,544 L 400,543 L 402,543 L 403,544 L 402,545 L 402,552 L 401,553 L 401,559 L 400,560 L 400,567 L 399,568 L 399,573 L 398,574 L 398,580 L 397,581 L 397,586 L 396,587 L 396,592 L 395,593 L 395,597 L 394,598 L 394,602 L 393,603 L 393,606 L 392,607 L 392,616 L 393,617 L 393,618 L 394,619 L 394,620 L 395,621 L 395,622 L 396,622 L 399,625 L 400,625 L 401,626 L 402,626 L 403,627 L 405,627 L 406,628 L 407,628 L 408,629 L 409,629 L 416,636 L 416,637 L 417,637 L 418,638 L 418,639 L 425,646 L 426,646 L 427,647 L 428,647 L 429,648 L 430,648 L 431,649 L 440,649 L 441,648 L 443,648 L 444,647 L 445,647 L 447,645 L 448,645 L 456,637 L 457,637 L 464,630 L 465,630 L 466,629 L 467,629 L 468,628 L 469,628 L 470,627 L 471,627 L 472,626 L 473,626 L 474,625 L 476,625 L 481,620 L 481,618 L 482,617 L 482,614 L 483,613 L 483,611 L 482,610 L 482,605 L 481,604 L 481,601 L 480,600 L 480,596 L 479,595 L 479,590 L 478,589 L 478,584 L 477,583 L 477,578 L 476,577 L 476,570 L 475,569 L 475,564 L 474,563 L 474,555 L 473,554 L 473,548 L 472,547 L 472,544 L 473,543 L 474,543 L 475,544 L 477,544 L 478,545 L 479,545 L 480,546 L 481,546 L 482,547 L 483,547 L 484,548 L 485,548 L 486,549 L 487,549 L 488,550 L 489,550 L 490,551 L 491,551 L 492,552 L 494,552 L 495,553 L 499,553 L 500,554 L 503,554 L 504,553 L 506,553 L 507,552 L 508,552 L 510,550 L 510,549 L 511,548 L 511,547 L 512,546 L 512,539 L 513,538 L 513,537 L 515,535 L 515,534 L 520,529 L 521,529 L 522,530 L 522,532 L 521,533 L 521,535 L 520,536 L 520,541 L 519,542 L 519,548 L 518,549 L 518,551 L 519,552 L 519,556 L 520,557 L 520,558 L 526,564 L 527,564 L 528,565 L 529,565 L 530,566 L 531,566 L 532,567 L 533,567 L 534,568 L 536,568 L 537,569 L 538,569 L 539,570 L 540,570 L 541,571 L 542,571 L 543,572 L 543,573 L 545,573 L 555,583 L 555,584 L 562,591 L 562,592 L 567,597 L 568,597 L 570,599 L 571,599 L 572,600 L 573,600 L 574,601 L 579,601 L 580,602 L 583,602 L 584,601 L 587,601 L 588,600 L 590,600 L 592,598 L 593,598 L 595,596 L 596,596 L 602,590 L 603,590 L 603,589 L 604,588 L 605,588 L 611,582 L 612,582 L 619,575 L 620,575 L 620,574 L 621,573 L 622,573 L 623,572 L 624,572 L 626,570 L 628,570 L 629,569 L 630,569 L 631,568 L 632,568 L 633,567 L 635,567 L 636,566 L 637,566 L 638,565 L 639,565 L 641,563 L 642,563 L 645,560 L 645,559 L 647,557 L 647,556 L 648,555 L 648,543 L 647,542 L 647,539 L 646,538 L 646,535 L 645,534 L 645,530 L 646,529 L 655,538 L 655,539 L 656,540 L 656,546 L 657,547 L 657,549 L 658,550 L 658,551 L 660,553 L 661,553 L 662,554 L 663,554 L 664,555 L 671,555 L 672,554 L 674,554 L 675,553 L 677,553 L 678,552 L 679,552 L 680,551 L 681,551 L 682,550 L 683,550 L 684,549 L 685,549 L 686,548 L 687,548 L 688,547 L 689,547 L 690,546 L 691,546 L 692,545 L 694,545 L 695,544 L 696,545 L 696,551 L 695,552 L 695,558 L 694,559 L 694,565 L 693,566 L 693,572 L 692,573 L 692,579 L 691,580 L 691,586 L 690,587 L 690,592 L 689,593 L 689,597 L 688,598 L 688,602 L 687,603 L 687,606 L 686,607 L 686,618 L 687,619 L 687,620 L 688,621 L 688,622 L 691,625 L 692,625 L 694,627 L 695,627 L 696,628 L 698,628 L 699,629 L 700,629 L 702,631 L 703,631 L 704,632 L 705,632 L 708,635 L 708,636 L 713,641 L 713,642 L 716,645 L 716,646 L 717,646 L 718,647 L 719,647 L 721,649 L 723,649 L 724,650 L 727,650 L 728,651 L 731,651 L 732,650 L 736,650 L 738,648 L 740,648 L 748,640 L 749,640 L 757,632 L 758,632 L 759,631 L 760,631 L 762,629 L 764,629 L 765,628 L 766,628 L 767,627 L 768,627 L 770,625 L 771,625 L 774,622 L 774,621 L 775,620 L 775,619 L 776,618 L 776,608 L 775,607 L 775,603 L 774,602 L 774,598 L 773,597 L 773,592 L 772,591 L 772,587 L 771,586 L 771,581 L 770,580 L 770,574 L 769,573 L 769,566 L 768,565 L 768,558 L 767,557 L 767,552 L 766,551 L 766,545 L 767,544 L 768,545 L 770,545 L 771,546 L 772,546 L 773,547 L 774,547 L 775,548 L 776,548 L 777,549 L 778,549 L 779,550 L 780,550 L 781,551 L 783,551 L 785,553 L 787,553 L 788,554 L 790,554 L 791,555 L 798,555 L 799,554 L 800,554 L 801,553 L 802,553 L 804,551 L 804,550 L 805,549 L 805,546 L 806,545 L 806,541 L 807,540 L 807,538 L 809,536 L 809,535 L 813,531 L 814,531 L 814,530 L 816,528 L 817,528 L 817,527 L 825,519 L 825,518 L 827,516 L 827,515 L 829,513 L 829,511 L 830,510 L 830,508 L 831,507 L 831,502 L 830,501 L 830,499 L 829,498 L 829,497 L 828,496 L 828,495 L 824,491 L 823,491 L 818,486 L 817,486 L 815,484 L 814,484 L 811,481 L 810,481 L 809,480 L 809,479 L 807,477 L 807,476 L 806,475 L 806,471 L 805,470 L 805,468 L 804,467 L 804,466 L 800,462 L 798,462 L 797,461 L 790,461 L 789,462 L 786,462 L 785,463 L 784,463 L 783,464 L 782,464 L 781,465 L 780,465 L 779,466 L 778,466 L 777,467 L 776,467 L 775,468 L 774,468 L 773,469 L 772,469 L 771,468 L 771,467 L 773,465 L 773,464 L 774,463 L 774,461 L 775,460 L 775,458 L 776,457 L 776,456 L 777,455 L 777,453 L 778,452 L 778,444 L 777,443 L 777,442 L 776,441 L 776,440 L 774,438 L 773,438 L 772,437 L 771,437 L 770,436 L 762,436 L 759,433 L 759,431 L 758,430 L 758,429 L 756,427 L 756,426 L 754,424 L 754,423 L 749,418 L 749,417 L 743,411 L 742,411 L 740,409 L 739,409 L 738,408 L 736,408 L 735,407 L 734,407 L 733,406 L 730,406 L 729,407 L 726,407 L 725,408 L 724,408 L 723,409 L 722,409 L 721,410 L 720,410 L 720,411 L 719,412 L 718,412 L 711,419 L 711,420 L 708,423 L 708,424 L 706,426 L 706,427 L 704,429 L 704,431 L 702,433 L 702,434 L 700,436 L 696,436 L 695,435 L 695,433 L 696,432 L 696,431 L 697,430 L 697,429 L 698,428 L 698,426 L 705,419 L 705,418 L 706,417 L 707,417 L 707,416 L 720,403 L 720,402 L 727,395 L 727,394 L 730,391 L 730,390 L 731,389 L 731,388 L 732,387 L 732,386 L 733,385 L 733,384 L 734,383 L 734,379 L 735,378 L 734,377 L 734,373 L 733,372 L 733,371 L 732,370 L 732,369 L 729,366 L 729,365 L 726,362 L 725,362 L 721,358 L 720,358 L 718,356 L 717,356 L 713,352 L 712,352 L 710,350 L 709,350 L 708,349 L 708,348 L 707,348 L 705,346 L 704,346 L 698,340 L 698,339 L 697,338 L 697,336 L 696,335 L 696,331 L 695,330 L 695,325 L 694,324 L 694,322 L 692,320 L 692,319 L 691,318 L 690,318 L 689,317 L 687,317 L 686,316 L 677,316 L 676,317 L 673,317 L 672,318 L 670,318 L 669,319 L 668,319 L 667,320 L 666,320 L 665,321 L 664,321 L 663,322 L 662,322 L 661,323 L 660,323 L 659,324 L 658,324 L 656,326 L 655,326 L 654,327 L 653,327 L 652,328 L 650,328 L 649,329 L 647,329 L 646,330 L 641,330 L 638,327 L 638,323 L 639,322 L 639,320 L 640,319 L 640,317 L 641,316 L 641,315 L 642,314 L 642,313 L 643,312 L 643,311 L 644,310 L 644,309 L 645,308 L 645,307 L 646,306 L 646,305 L 647,304 L 647,302 L 648,301 L 648,300 L 649,299 L 649,297 L 650,296 L 650,293 L 651,292 L 651,284 L 650,283 L 650,282 L 649,281 L 649,280 L 648,280 L 647,279 L 647,278 L 646,278 L 645,277 L 642,277 L 641,276 L 629,276 L 628,275 L 627,275 L 626,274 L 626,273 L 625,272 L 625,271 L 622,268 L 622,266 L 621,265 L 621,264 L 620,263 L 620,262 L 619,261 L 619,260 L 617,258 L 617,257 L 613,253 L 613,252 L 609,248 L 609,247 L 603,241 L 603,240 L 602,240 L 596,234 L 595,234 L 594,233 L 593,233 L 591,231 L 589,231 L 588,230 Z" fill="black"/><path d="M 850,222 L 850,223 L 849,224 L 849,225 L 840,234 L 839,234 L 836,237 L 835,237 L 834,238 L 832,238 L 831,239 L 829,239 L 828,240 L 828,242 L 825,245 L 824,244 L 825,245 L 824,246 L 824,247 L 823,248 L 822,248 L 819,251 L 818,251 L 816,253 L 815,253 L 814,254 L 813,254 L 812,255 L 811,255 L 810,256 L 808,256 L 807,257 L 807,261 L 811,265 L 812,265 L 814,267 L 814,269 L 815,270 L 815,271 L 817,273 L 817,274 L 818,275 L 818,276 L 824,282 L 825,282 L 826,283 L 827,283 L 828,284 L 830,284 L 831,285 L 837,285 L 838,284 L 839,284 L 840,283 L 841,283 L 846,278 L 847,278 L 850,275 L 851,275 L 852,274 L 856,274 L 857,273 L 857,271 L 858,270 L 858,269 L 861,266 L 862,266 L 866,262 L 867,262 L 872,257 L 872,255 L 873,254 L 873,250 L 872,249 L 872,246 L 871,245 L 871,244 L 870,243 L 870,242 L 869,241 L 869,240 L 868,239 L 868,238 L 867,238 L 866,237 L 866,236 L 863,233 L 862,233 L 860,231 L 859,231 L 858,230 L 858,228 L 857,227 L 857,226 L 856,225 L 856,224 L 855,223 L 854,223 L 853,222 Z" fill="black"/><path d="M 888,216 Z" fill="black"/><path d="M 322,214 L 317,219 L 317,220 L 316,221 L 316,222 L 313,225 L 312,225 L 308,229 L 308,231 L 307,232 L 307,235 L 308,235 L 309,236 L 310,236 L 311,237 L 312,237 L 320,245 L 320,246 L 322,248 L 322,250 L 324,252 L 323,253 L 322,253 L 321,252 L 319,252 L 318,251 L 317,251 L 316,250 L 314,250 L 312,248 L 311,248 L 308,245 L 307,245 L 306,244 L 306,243 L 304,241 L 304,240 L 303,239 L 301,239 L 300,240 L 299,240 L 299,241 L 295,245 L 295,246 L 294,247 L 294,249 L 293,250 L 292,250 L 289,253 L 288,253 L 287,254 L 287,255 L 286,256 L 286,257 L 285,258 L 285,261 L 287,261 L 288,262 L 290,262 L 291,263 L 292,263 L 294,265 L 295,265 L 297,267 L 298,267 L 303,272 L 303,273 L 306,276 L 306,277 L 307,278 L 307,279 L 309,279 L 310,280 L 312,280 L 314,282 L 315,282 L 317,284 L 318,284 L 320,286 L 320,288 L 321,287 L 325,291 L 325,292 L 327,294 L 327,295 L 329,297 L 332,297 L 335,294 L 335,292 L 337,290 L 338,290 L 340,288 L 340,287 L 341,286 L 341,282 L 338,282 L 336,280 L 334,280 L 333,279 L 332,279 L 330,277 L 329,277 L 325,273 L 324,273 L 320,269 L 319,269 L 314,264 L 313,264 L 312,263 L 313,262 L 315,262 L 316,263 L 319,263 L 320,264 L 321,264 L 326,269 L 328,269 L 329,270 L 331,270 L 332,271 L 334,271 L 335,272 L 336,272 L 338,274 L 338,275 L 339,275 L 340,276 L 340,277 L 342,279 L 342,280 L 346,280 L 349,277 L 349,275 L 350,274 L 351,274 L 352,273 L 353,273 L 353,272 L 354,271 L 354,266 L 352,266 L 351,265 L 352,264 L 351,265 L 350,265 L 348,263 L 347,263 L 343,259 L 343,258 L 341,256 L 341,254 L 340,253 L 340,252 L 339,251 L 338,251 L 337,250 L 336,250 L 335,249 L 336,248 L 335,249 L 334,248 L 334,247 L 332,245 L 332,243 L 331,242 L 331,241 L 332,240 L 335,243 L 336,243 L 337,244 L 337,245 L 338,245 L 341,248 L 342,248 L 353,259 L 353,260 L 355,262 L 355,264 L 356,264 L 357,265 L 358,264 L 359,264 L 360,263 L 361,263 L 362,262 L 362,261 L 363,260 L 363,258 L 364,257 L 366,257 L 367,256 L 367,255 L 368,254 L 368,252 L 369,251 L 367,249 L 366,249 L 365,248 L 362,248 L 360,246 L 359,246 L 357,244 L 356,244 L 349,237 L 349,236 L 347,234 L 347,233 L 345,231 L 343,231 L 342,230 L 340,230 L 338,228 L 337,228 L 334,225 L 333,225 L 331,223 L 331,222 L 327,218 L 327,217 L 325,215 L 325,214 Z" fill="black"/><path d="M 786,181 Z" fill="black"/><path d="M 795,178 L 794,179 L 793,179 L 792,180 L 791,180 L 790,181 L 789,181 L 784,186 L 784,187 L 780,191 L 779,191 L 778,192 L 776,192 L 775,193 L 775,197 L 774,198 L 774,199 L 771,202 L 771,203 L 768,206 L 768,207 L 766,209 L 766,211 L 765,212 L 765,220 L 766,221 L 766,222 L 767,223 L 767,225 L 775,233 L 777,233 L 778,234 L 780,234 L 781,235 L 791,235 L 792,234 L 793,234 L 794,233 L 795,233 L 803,225 L 803,224 L 805,222 L 806,222 L 807,221 L 809,221 L 810,220 L 809,219 L 809,218 L 810,217 L 810,215 L 816,209 L 816,208 L 818,206 L 818,205 L 819,204 L 819,199 L 820,198 L 820,197 L 819,196 L 819,193 L 818,192 L 819,191 L 817,189 L 817,188 L 811,182 L 810,182 L 809,181 L 808,181 L 807,180 L 806,180 L 805,179 L 803,179 L 802,178 Z" fill="black"/><path d="M 380,166 L 379,167 L 377,167 L 376,168 L 375,168 L 374,169 L 373,169 L 367,175 L 367,176 L 366,177 L 366,178 L 365,179 L 365,181 L 364,182 L 364,189 L 365,190 L 365,192 L 366,193 L 366,194 L 368,196 L 368,197 L 371,200 L 371,201 L 373,203 L 373,204 L 374,205 L 374,206 L 373,207 L 374,208 L 376,208 L 384,216 L 384,217 L 387,220 L 388,220 L 390,222 L 392,222 L 393,223 L 402,223 L 403,222 L 404,222 L 405,221 L 407,221 L 409,219 L 410,219 L 413,216 L 413,215 L 415,213 L 415,212 L 417,210 L 417,207 L 418,206 L 418,201 L 417,200 L 417,197 L 416,196 L 416,195 L 414,193 L 414,192 L 410,188 L 410,187 L 408,185 L 408,181 L 407,180 L 405,180 L 403,178 L 402,178 L 401,177 L 401,176 L 398,173 L 398,172 L 396,170 L 395,170 L 393,168 L 392,168 L 390,166 Z" fill="black"/><path d="M 709,125 L 708,126 L 708,131 L 707,132 L 707,135 L 706,136 L 706,138 L 705,139 L 705,140 L 704,141 L 704,142 L 703,143 L 703,144 L 699,148 L 699,149 L 698,150 L 697,150 L 696,151 L 696,157 L 695,158 L 695,160 L 694,161 L 694,163 L 693,164 L 693,165 L 692,166 L 692,167 L 690,169 L 690,170 L 687,173 L 687,174 L 684,177 L 684,179 L 686,181 L 688,181 L 689,182 L 691,182 L 693,184 L 694,184 L 695,185 L 701,185 L 702,184 L 701,183 L 701,182 L 702,181 L 702,177 L 703,176 L 703,174 L 704,173 L 704,171 L 705,170 L 705,169 L 706,168 L 706,167 L 707,166 L 707,164 L 709,162 L 709,160 L 710,159 L 710,158 L 711,157 L 711,156 L 712,155 L 712,153 L 713,152 L 714,153 L 714,161 L 713,162 L 713,163 L 711,165 L 711,166 L 710,167 L 710,177 L 709,178 L 709,179 L 708,180 L 708,181 L 706,183 L 706,184 L 704,186 L 704,188 L 706,190 L 707,190 L 708,191 L 711,191 L 712,192 L 712,193 L 713,193 L 714,194 L 715,194 L 716,195 L 717,194 L 720,194 L 720,191 L 721,190 L 721,187 L 722,186 L 722,185 L 723,184 L 723,183 L 728,178 L 729,178 L 731,176 L 731,174 L 732,173 L 732,171 L 738,165 L 739,166 L 739,168 L 738,169 L 738,170 L 737,171 L 737,172 L 736,173 L 736,174 L 735,175 L 735,176 L 734,177 L 734,178 L 733,179 L 733,181 L 732,182 L 732,183 L 730,185 L 730,186 L 729,187 L 729,188 L 722,195 L 722,196 L 726,200 L 730,200 L 733,203 L 734,203 L 735,204 L 736,203 L 737,204 L 738,204 L 739,203 L 740,203 L 740,197 L 741,196 L 741,194 L 742,193 L 742,191 L 743,190 L 743,189 L 744,188 L 744,186 L 746,184 L 746,183 L 752,177 L 752,170 L 753,169 L 753,167 L 754,166 L 754,165 L 755,164 L 755,162 L 757,160 L 757,159 L 763,153 L 763,150 L 760,147 L 759,147 L 758,146 L 755,146 L 754,145 L 752,145 L 749,142 L 748,142 L 747,141 L 746,141 L 745,140 L 742,140 L 741,139 L 739,139 L 738,140 L 738,144 L 737,145 L 737,147 L 736,148 L 736,149 L 735,150 L 735,151 L 734,152 L 734,153 L 727,160 L 726,159 L 726,150 L 727,149 L 727,147 L 728,146 L 728,145 L 729,144 L 729,143 L 730,142 L 730,141 L 733,138 L 734,138 L 734,137 L 731,134 L 730,134 L 728,132 L 726,132 L 725,131 L 721,131 L 720,130 L 720,129 L 719,129 L 717,127 L 716,127 L 715,126 L 712,126 L 711,125 Z" fill="black"/><path d="M 503,112 L 502,113 L 500,113 L 499,114 L 498,114 L 497,115 L 490,115 L 489,116 L 488,116 L 486,118 L 488,120 L 488,121 L 490,123 L 490,124 L 491,125 L 491,126 L 492,127 L 492,130 L 493,131 L 493,135 L 494,136 L 494,142 L 493,143 L 493,146 L 494,147 L 494,148 L 496,150 L 496,152 L 498,154 L 498,158 L 499,159 L 499,167 L 500,168 L 499,169 L 499,174 L 501,174 L 502,175 L 504,175 L 505,174 L 507,174 L 509,172 L 518,172 L 519,171 L 521,171 L 522,170 L 523,170 L 524,169 L 525,169 L 526,168 L 527,168 L 528,167 L 535,167 L 535,165 L 533,163 L 533,161 L 532,160 L 532,157 L 531,156 L 531,155 L 528,152 L 527,152 L 526,153 L 525,153 L 525,155 L 521,159 L 520,159 L 519,160 L 516,160 L 515,159 L 515,158 L 514,157 L 514,156 L 513,155 L 513,152 L 512,151 L 512,145 L 513,144 L 513,141 L 512,140 L 512,139 L 510,137 L 510,136 L 509,135 L 509,133 L 508,132 L 508,129 L 507,128 L 507,123 L 506,122 L 506,120 L 507,119 L 507,114 L 506,113 L 505,113 L 504,112 Z" fill="black"/><path d="M 576,103 L 575,104 L 573,104 L 572,105 L 572,106 L 573,107 L 573,117 L 572,118 L 572,121 L 571,122 L 571,123 L 570,124 L 570,125 L 569,126 L 569,127 L 567,129 L 567,130 L 565,132 L 565,133 L 564,134 L 564,136 L 565,137 L 565,140 L 564,141 L 564,146 L 563,147 L 563,149 L 562,150 L 562,151 L 561,152 L 561,153 L 559,155 L 559,156 L 554,161 L 554,162 L 555,163 L 556,163 L 557,164 L 564,164 L 565,163 L 566,163 L 567,164 L 574,164 L 575,163 L 575,161 L 574,160 L 574,156 L 573,155 L 573,153 L 574,152 L 574,150 L 575,149 L 575,148 L 579,144 L 585,144 L 586,145 L 587,145 L 589,147 L 589,148 L 590,149 L 590,150 L 591,151 L 591,158 L 590,159 L 590,161 L 589,162 L 589,163 L 590,164 L 598,164 L 599,163 L 600,164 L 608,164 L 609,163 L 610,163 L 611,162 L 608,159 L 608,158 L 607,158 L 606,157 L 606,156 L 604,154 L 604,153 L 603,152 L 603,150 L 602,149 L 602,148 L 601,147 L 601,145 L 600,144 L 600,133 L 597,130 L 597,129 L 596,128 L 596,127 L 595,126 L 595,125 L 594,124 L 594,123 L 593,122 L 593,121 L 592,120 L 592,117 L 591,116 L 591,108 L 592,107 L 592,104 L 591,104 L 590,103 L 585,103 L 584,104 L 580,104 L 579,103 Z" fill="black"/><path d="M 456,98 L 457,98 Z" fill="black"/><path d="M 456,96 L 458,96 L 459,97 L 463,97 L 464,98 L 464,99 L 464,98 L 463,97 L 464,96 L 462,96 L 461,97 L 459,97 L 458,96 Z" fill="black"/><path d="M 490,90 L 491,90 Z" fill="black"/><path d="M 512,85 Z" fill="black"/><path d="M 408,56 L 408,58 L 409,58 L 409,56 Z" fill="black"/><path d="M 400,48 L 400,50 L 401,50 L 401,48 Z" fill="black"/><path d="M 392,40 L 392,42 L 393,42 L 393,40 Z" fill="black"/><path d="M 384,32 L 384,34 L 385,34 L 385,32 Z" fill="black"/><path d="M 376,16 L 376,17 Z" fill="black"/><path d="M 24,16 L 31,16 Z" fill="black"/><path d="M 368,8 L 368,9 Z" fill="black"/><path d="M 96,0 L 96,3 L 95,4 L 88,4 L 87,5 L 80,5 L 79,6 L 77,6 L 75,8 L 64,8 L 64,12 L 63,13 L 56,13 L 56,15 L 55,16 L 40,16 L 40,17 L 39,18 L 32,18 L 32,22 L 31,23 L 24,23 L 23,24 L 16,24 L 16,25 L 15,26 L 0,26 L 0,602 L 15,602 L 16,603 L 16,607 L 23,607 L 24,608 L 24,610 L 26,610 L 27,611 L 28,611 L 29,612 L 31,612 L 32,613 L 32,623 L 39,623 L 39,622 L 40,621 L 42,621 L 43,622 L 43,623 L 47,623 L 48,624 L 48,631 L 58,631 L 60,633 L 60,634 L 61,635 L 62,635 L 64,637 L 64,647 L 71,647 L 72,648 L 72,653 L 79,653 L 80,654 L 80,655 L 81,655 L 82,656 L 82,663 L 95,663 L 96,664 L 96,679 L 97,679 L 98,680 L 98,687 L 97,688 L 96,688 L 96,695 L 99,695 L 100,696 L 100,703 L 101,703 L 102,704 L 102,707 L 100,709 L 100,712 L 99,713 L 99,715 L 98,716 L 98,735 L 97,736 L 96,736 L 96,815 L 97,815 L 98,816 L 98,831 L 97,832 L 96,832 L 96,855 L 95,856 L 94,856 L 94,863 L 93,864 L 92,864 L 92,871 L 91,872 L 88,872 L 88,873 L 95,873 L 96,874 L 96,875 L 95,876 L 88,876 L 88,878 L 95,878 L 96,879 L 95,880 L 90,880 L 90,887 L 89,888 L 88,888 L 87,887 L 87,880 L 86,880 L 86,887 L 87,887 L 88,888 L 88,895 L 87,896 L 80,896 L 80,908 L 76,912 L 74,912 L 74,919 L 73,920 L 72,920 L 71,921 L 71,922 L 70,923 L 70,925 L 69,926 L 69,927 L 68,928 L 64,928 L 64,931 L 63,932 L 61,932 L 60,933 L 60,935 L 59,936 L 56,936 L 56,937 L 55,938 L 48,938 L 48,940 L 44,944 L 40,944 L 40,946 L 39,947 L 36,947 L 36,948 L 35,949 L 32,949 L 32,951 L 31,952 L 16,952 L 16,953 L 15,954 L 8,954 L 8,955 L 7,956 L 0,956 L 0,965 L 735,965 L 704,965 L 703,964 L 703,960 L 688,960 L 687,959 L 685,959 L 684,958 L 683,958 L 682,957 L 679,957 L 678,956 L 677,956 L 675,954 L 675,953 L 674,952 L 672,952 L 671,951 L 669,951 L 668,950 L 667,950 L 666,949 L 664,949 L 663,948 L 661,948 L 659,946 L 659,944 L 653,944 L 651,942 L 651,941 L 650,940 L 649,940 L 648,939 L 647,940 L 645,940 L 643,938 L 643,936 L 640,936 L 639,935 L 639,932 L 632,932 L 631,931 L 629,931 L 627,929 L 627,928 L 616,928 L 615,927 L 615,926 L 608,926 L 607,925 L 607,924 L 600,924 L 599,923 L 599,920 L 592,920 L 591,919 L 591,916 L 584,916 L 583,915 L 581,915 L 579,913 L 579,912 L 567,912 L 563,908 L 563,907 L 560,904 L 559,904 L 555,900 L 555,899 L 552,896 L 549,896 L 548,895 L 548,888 L 547,887 L 547,864 L 548,863 L 551,863 L 551,858 L 552,857 L 559,857 L 560,856 L 567,856 L 568,857 L 607,857 L 608,856 L 623,856 L 624,855 L 633,855 L 634,854 L 641,854 L 642,853 L 647,853 L 648,852 L 653,852 L 654,851 L 660,851 L 661,850 L 665,850 L 666,849 L 670,849 L 671,848 L 674,848 L 675,847 L 679,847 L 680,846 L 682,846 L 683,845 L 687,845 L 688,844 L 690,844 L 691,843 L 695,843 L 696,842 L 697,842 L 698,841 L 701,841 L 702,840 L 703,840 L 704,839 L 708,839 L 709,838 L 711,838 L 712,837 L 713,837 L 714,836 L 716,836 L 717,835 L 719,835 L 720,834 L 722,834 L 723,833 L 725,833 L 727,831 L 730,831 L 731,830 L 732,830 L 733,829 L 735,829 L 736,828 L 737,828 L 738,827 L 739,827 L 740,826 L 742,826 L 743,825 L 744,825 L 745,824 L 747,824 L 748,823 L 749,823 L 750,822 L 751,822 L 752,821 L 754,821 L 756,819 L 757,819 L 758,818 L 759,818 L 760,817 L 762,817 L 764,815 L 765,815 L 766,814 L 767,814 L 768,813 L 769,813 L 770,812 L 771,812 L 772,811 L 773,811 L 774,810 L 775,810 L 776,809 L 777,809 L 778,808 L 779,808 L 781,806 L 784,806 L 783,805 L 784,804 L 786,804 L 788,802 L 789,802 L 791,800 L 792,800 L 793,799 L 794,799 L 797,796 L 798,796 L 799,795 L 801,795 L 804,792 L 805,792 L 807,790 L 808,790 L 810,788 L 811,788 L 814,785 L 815,785 L 815,783 L 814,783 L 813,784 L 812,784 L 810,786 L 809,786 L 807,788 L 806,788 L 804,790 L 803,790 L 801,792 L 800,792 L 798,794 L 797,794 L 795,796 L 794,796 L 793,797 L 792,797 L 790,799 L 789,799 L 787,801 L 786,801 L 785,802 L 784,802 L 783,803 L 782,803 L 780,805 L 779,805 L 778,806 L 777,806 L 775,808 L 773,808 L 772,809 L 771,809 L 769,811 L 768,811 L 767,812 L 766,812 L 765,813 L 764,813 L 763,814 L 762,814 L 761,815 L 760,815 L 759,816 L 758,816 L 757,817 L 756,817 L 755,818 L 754,818 L 753,819 L 752,819 L 751,820 L 749,820 L 748,821 L 747,821 L 746,822 L 745,822 L 744,823 L 743,823 L 742,824 L 740,824 L 739,825 L 738,825 L 737,826 L 736,826 L 735,827 L 733,827 L 732,828 L 730,828 L 729,829 L 728,829 L 727,830 L 725,830 L 724,831 L 723,831 L 722,832 L 720,832 L 719,833 L 717,833 L 716,834 L 714,834 L 713,835 L 712,835 L 711,836 L 708,836 L 707,837 L 705,837 L 704,838 L 701,838 L 700,839 L 699,839 L 698,840 L 695,840 L 694,841 L 691,841 L 690,842 L 688,842 L 687,843 L 683,843 L 682,844 L 680,844 L 679,845 L 676,845 L 675,846 L 672,846 L 671,847 L 666,847 L 665,848 L 661,848 L 660,849 L 656,849 L 655,850 L 649,850 L 648,851 L 642,851 L 641,852 L 634,852 L 633,853 L 624,853 L 623,854 L 609,854 L 608,855 L 568,855 L 567,854 L 556,854 L 555,853 L 545,853 L 544,852 L 536,852 L 535,851 L 531,851 L 530,850 L 524,850 L 523,849 L 518,849 L 517,848 L 513,848 L 512,847 L 509,847 L 508,846 L 504,846 L 503,845 L 500,845 L 499,844 L 496,844 L 495,843 L 491,843 L 490,842 L 488,842 L 487,841 L 484,841 L 483,840 L 480,840 L 479,839 L 477,839 L 476,838 L 474,838 L 473,837 L 471,837 L 470,836 L 468,836 L 467,835 L 465,835 L 464,834 L 462,834 L 461,833 L 459,833 L 458,832 L 456,832 L 455,831 L 454,831 L 453,830 L 451,830 L 450,829 L 449,829 L 448,828 L 446,828 L 445,827 L 443,827 L 442,826 L 441,826 L 440,825 L 439,825 L 438,824 L 436,824 L 435,823 L 434,823 L 433,822 L 432,822 L 431,821 L 430,821 L 429,820 L 427,820 L 426,819 L 425,819 L 424,818 L 423,818 L 422,817 L 421,817 L 420,816 L 419,816 L 418,815 L 417,815 L 416,814 L 415,814 L 414,813 L 413,813 L 412,812 L 411,812 L 410,811 L 409,811 L 407,809 L 406,809 L 405,808 L 404,808 L 403,807 L 402,807 L 401,806 L 400,806 L 399,805 L 398,805 L 396,803 L 395,803 L 394,802 L 393,802 L 391,800 L 390,800 L 389,799 L 388,799 L 386,797 L 385,797 L 384,796 L 383,796 L 381,794 L 380,794 L 379,793 L 378,793 L 375,790 L 374,790 L 372,788 L 371,788 L 369,786 L 368,786 L 366,784 L 365,784 L 362,781 L 361,781 L 358,778 L 357,778 L 353,774 L 352,774 L 349,771 L 348,771 L 345,768 L 344,768 L 338,762 L 337,762 L 336,761 L 336,760 L 335,760 L 330,755 L 329,755 L 327,753 L 327,752 L 326,752 L 303,729 L 303,728 L 296,721 L 296,720 L 290,714 L 290,713 L 287,710 L 287,709 L 283,705 L 283,704 L 279,700 L 279,699 L 277,697 L 277,696 L 276,696 L 275,695 L 275,694 L 274,693 L 274,692 L 271,689 L 271,688 L 269,686 L 269,685 L 267,683 L 267,682 L 265,680 L 265,679 L 263,677 L 263,676 L 262,675 L 262,674 L 260,672 L 260,671 L 258,669 L 258,668 L 257,667 L 257,666 L 256,665 L 256,664 L 254,662 L 254,661 L 252,659 L 252,658 L 251,657 L 251,656 L 250,655 L 250,654 L 249,653 L 249,652 L 248,651 L 248,650 L 247,649 L 247,648 L 245,646 L 245,645 L 244,644 L 244,643 L 243,642 L 243,641 L 242,640 L 242,638 L 240,636 L 240,635 L 239,634 L 239,632 L 238,631 L 238,630 L 237,629 L 237,628 L 236,627 L 236,626 L 235,625 L 235,624 L 234,623 L 234,622 L 233,621 L 233,619 L 232,618 L 232,616 L 231,615 L 231,614 L 230,613 L 230,612 L 229,611 L 229,609 L 228,608 L 228,606 L 227,605 L 227,604 L 226,603 L 226,601 L 225,600 L 225,599 L 224,598 L 224,596 L 223,595 L 223,592 L 222,591 L 222,590 L 221,589 L 221,587 L 220,586 L 220,584 L 219,583 L 219,580 L 218,579 L 218,576 L 217,575 L 217,573 L 216,572 L 216,570 L 215,569 L 215,566 L 214,565 L 214,563 L 213,562 L 213,558 L 212,557 L 212,554 L 211,553 L 211,549 L 210,548 L 210,544 L 209,543 L 209,539 L 208,538 L 208,533 L 207,532 L 207,527 L 206,526 L 206,521 L 205,520 L 205,512 L 204,511 L 204,501 L 203,500 L 203,488 L 202,487 L 202,451 L 203,450 L 203,435 L 204,434 L 204,425 L 205,424 L 205,417 L 206,416 L 206,410 L 207,409 L 207,404 L 208,403 L 208,398 L 209,397 L 209,393 L 210,392 L 210,388 L 211,387 L 211,383 L 212,382 L 212,380 L 213,379 L 213,375 L 214,374 L 214,371 L 215,370 L 215,367 L 216,366 L 216,364 L 217,363 L 217,360 L 218,359 L 218,357 L 219,356 L 219,353 L 220,352 L 220,350 L 221,349 L 221,347 L 222,346 L 222,345 L 223,344 L 223,341 L 224,340 L 224,338 L 225,337 L 225,336 L 226,335 L 226,333 L 227,332 L 227,330 L 228,329 L 228,328 L 229,327 L 229,325 L 230,324 L 230,323 L 231,322 L 231,320 L 232,319 L 232,318 L 233,317 L 233,315 L 234,314 L 234,313 L 236,311 L 236,309 L 237,308 L 237,307 L 238,306 L 238,305 L 239,304 L 239,302 L 240,301 L 240,300 L 241,299 L 241,298 L 242,297 L 242,296 L 243,295 L 243,294 L 244,293 L 244,292 L 246,290 L 246,288 L 247,287 L 247,286 L 249,284 L 249,283 L 250,282 L 250,281 L 251,280 L 251,279 L 253,277 L 253,276 L 254,275 L 254,274 L 255,273 L 255,272 L 256,271 L 256,270 L 258,268 L 258,267 L 260,265 L 260,264 L 261,263 L 261,262 L 263,260 L 263,259 L 265,257 L 265,256 L 267,254 L 267,253 L 269,251 L 269,250 L 272,247 L 272,246 L 274,244 L 274,243 L 276,241 L 276,240 L 279,237 L 279,236 L 282,233 L 282,232 L 286,228 L 286,227 L 291,222 L 291,221 L 295,217 L 295,216 L 306,205 L 306,204 L 323,187 L 324,187 L 336,175 L 337,175 L 342,170 L 343,170 L 347,166 L 348,166 L 352,162 L 353,162 L 356,159 L 357,159 L 361,155 L 362,155 L 365,152 L 366,152 L 369,149 L 370,149 L 371,148 L 372,148 L 373,147 L 374,147 L 377,144 L 378,144 L 379,143 L 380,143 L 382,141 L 383,141 L 385,139 L 386,139 L 388,137 L 389,137 L 390,136 L 391,136 L 392,135 L 393,135 L 395,133 L 396,133 L 398,131 L 399,131 L 400,130 L 401,130 L 402,129 L 403,129 L 404,128 L 405,128 L 406,127 L 407,127 L 409,125 L 410,125 L 411,124 L 412,124 L 413,123 L 414,123 L 415,122 L 416,122 L 417,121 L 419,121 L 421,119 L 423,119 L 424,118 L 425,118 L 426,117 L 427,117 L 428,116 L 429,116 L 430,115 L 431,115 L 432,114 L 433,114 L 434,113 L 436,113 L 437,112 L 438,112 L 439,111 L 440,111 L 441,110 L 443,110 L 444,109 L 445,109 L 446,108 L 447,108 L 448,107 L 450,107 L 451,106 L 453,106 L 454,105 L 455,105 L 456,104 L 458,104 L 459,103 L 461,103 L 462,102 L 463,102 L 464,101 L 467,101 L 468,100 L 471,100 L 472,99 L 473,99 L 474,98 L 476,98 L 477,97 L 479,97 L 480,96 L 483,96 L 484,95 L 487,95 L 488,94 L 491,94 L 492,93 L 495,93 L 496,92 L 499,92 L 500,91 L 503,91 L 504,90 L 508,90 L 509,89 L 513,89 L 514,88 L 518,88 L 519,87 L 524,87 L 525,86 L 530,86 L 531,85 L 537,85 L 538,84 L 545,84 L 546,83 L 555,83 L 556,82 L 571,82 L 572,81 L 607,81 L 608,82 L 623,82 L 624,83 L 632,83 L 633,84 L 640,84 L 641,85 L 647,85 L 648,86 L 653,86 L 654,87 L 659,87 L 660,88 L 664,88 L 665,89 L 669,89 L 670,90 L 674,90 L 675,91 L 678,91 L 679,92 L 682,92 L 683,93 L 686,93 L 687,94 L 690,94 L 691,95 L 694,95 L 695,96 L 697,96 L 698,97 L 700,97 L 701,98 L 704,98 L 705,99 L 707,99 L 708,100 L 710,100 L 711,101 L 713,101 L 714,102 L 716,102 L 717,103 L 719,103 L 720,104 L 721,104 L 722,105 L 724,105 L 725,106 L 727,106 L 728,107 L 729,107 L 730,108 L 732,108 L 733,109 L 735,109 L 736,110 L 737,110 L 738,111 L 739,111 L 740,112 L 742,112 L 744,114 L 746,114 L 747,115 L 748,115 L 749,116 L 751,116 L 753,118 L 755,118 L 756,119 L 757,119 L 758,120 L 759,120 L 760,121 L 761,121 L 762,122 L 763,122 L 765,124 L 767,124 L 769,126 L 770,126 L 771,127 L 772,127 L 773,128 L 775,128 L 777,130 L 778,130 L 780,132 L 782,132 L 784,134 L 785,134 L 786,135 L 787,135 L 789,137 L 790,137 L 792,139 L 793,139 L 795,141 L 796,141 L 798,143 L 799,143 L 800,144 L 801,144 L 803,146 L 804,146 L 805,147 L 806,147 L 810,151 L 811,151 L 812,152 L 813,152 L 817,156 L 818,156 L 821,159 L 822,159 L 823,160 L 824,160 L 829,165 L 830,165 L 836,171 L 837,171 L 841,175 L 842,175 L 851,184 L 852,184 L 874,206 L 874,207 L 880,213 L 880,214 L 881,214 L 883,216 L 883,217 L 887,221 L 887,222 L 891,226 L 891,227 L 896,232 L 896,233 L 898,235 L 898,236 L 901,239 L 901,240 L 904,243 L 904,244 L 906,246 L 906,247 L 909,250 L 909,251 L 911,253 L 911,254 L 913,256 L 913,257 L 915,259 L 915,260 L 916,261 L 916,262 L 918,264 L 918,265 L 920,267 L 920,268 L 922,270 L 922,271 L 923,272 L 923,273 L 924,274 L 924,275 L 925,276 L 925,277 L 928,280 L 928,282 L 929,283 L 929,284 L 930,285 L 930,286 L 932,288 L 932,289 L 933,290 L 933,291 L 934,292 L 934,293 L 935,294 L 935,295 L 936,296 L 936,297 L 937,298 L 937,299 L 938,300 L 938,301 L 939,302 L 939,303 L 940,304 L 940,305 L 941,306 L 941,308 L 942,309 L 942,310 L 943,311 L 943,312 L 944,313 L 944,315 L 945,316 L 945,317 L 946,318 L 946,319 L 947,320 L 947,322 L 948,323 L 948,324 L 949,325 L 949,327 L 950,328 L 950,329 L 951,330 L 951,332 L 952,333 L 952,335 L 953,336 L 953,338 L 954,339 L 954,340 L 955,341 L 955,343 L 956,344 L 956,346 L 957,347 L 957,349 L 958,350 L 958,352 L 959,353 L 959,355 L 960,356 L 960,359 L 961,360 L 961,362 L 962,363 L 962,366 L 963,367 L 963,370 L 964,371 L 964,373 L 965,374 L 965,377 L 966,378 L 966,382 L 967,383 L 967,386 L 968,387 L 968,392 L 969,393 L 969,397 L 970,398 L 970,403 L 971,404 L 971,408 L 972,409 L 972,415 L 973,416 L 973,423 L 974,424 L 974,433 L 975,434 L 975,447 L 976,448 L 976,487 L 975,488 L 975,503 L 974,504 L 974,512 L 973,513 L 973,520 L 972,521 L 972,527 L 971,528 L 971,533 L 970,534 L 970,539 L 969,540 L 969,543 L 968,544 L 968,549 L 967,550 L 967,553 L 966,554 L 966,558 L 965,559 L 965,562 L 964,563 L 964,565 L 963,566 L 963,569 L 962,570 L 962,573 L 961,574 L 961,576 L 960,577 L 960,580 L 959,581 L 959,583 L 958,584 L 958,586 L 957,587 L 957,589 L 956,590 L 956,592 L 955,593 L 955,595 L 954,596 L 954,598 L 953,599 L 953,601 L 952,602 L 952,604 L 951,605 L 951,607 L 950,608 L 950,609 L 949,610 L 949,611 L 948,612 L 948,613 L 947,614 L 947,615 L 946,616 L 946,618 L 945,619 L 945,621 L 944,622 L 944,623 L 943,624 L 943,625 L 942,626 L 942,627 L 941,628 L 941,629 L 940,630 L 940,632 L 939,633 L 939,634 L 938,635 L 938,636 L 937,637 L 937,638 L 936,639 L 936,640 L 935,641 L 935,642 L 934,643 L 934,644 L 933,645 L 933,646 L 932,647 L 932,648 L 931,649 L 931,650 L 929,652 L 929,653 L 928,654 L 928,655 L 927,656 L 927,657 L 926,658 L 926,659 L 924,661 L 924,663 L 921,666 L 921,667 L 920,668 L 920,669 L 919,670 L 919,671 L 917,673 L 917,674 L 915,676 L 915,677 L 912,680 L 912,681 L 911,682 L 911,683 L 909,685 L 909,686 L 907,688 L 907,689 L 904,692 L 904,694 L 906,694 L 906,693 L 908,691 L 908,690 L 910,688 L 911,688 L 912,687 L 912,685 L 914,683 L 914,682 L 915,681 L 915,680 L 917,678 L 918,679 L 917,678 L 917,677 L 918,676 L 918,675 L 920,673 L 921,673 L 921,671 L 922,670 L 922,669 L 923,668 L 923,667 L 925,665 L 925,664 L 926,663 L 927,664 L 927,661 L 929,659 L 929,658 L 930,657 L 930,656 L 931,655 L 931,653 L 932,652 L 932,651 L 934,649 L 935,650 L 934,649 L 934,647 L 935,646 L 936,646 L 936,645 L 937,644 L 937,643 L 939,641 L 939,639 L 940,638 L 941,638 L 942,639 L 941,640 L 941,642 L 942,643 L 942,645 L 942,639 L 941,638 L 941,636 L 942,635 L 943,636 L 943,637 L 944,638 L 944,639 L 959,639 L 960,640 L 960,642 L 983,642 L 984,641 L 991,641 L 992,642 L 992,643 L 999,643 L 1000,644 L 1002,642 L 1002,640 L 1003,639 L 1015,639 L 1015,636 L 1016,635 L 1023,635 L 1023,634 L 1024,633 L 1031,633 L 1032,632 L 1039,632 L 1040,631 L 1047,631 L 1047,630 L 1048,629 L 1063,629 L 1063,627 L 1064,626 L 1065,626 L 1066,625 L 1068,625 L 1069,624 L 1070,624 L 1071,623 L 1071,621 L 1072,620 L 1074,620 L 1075,619 L 1076,619 L 1077,618 L 1079,618 L 1079,616 L 1080,615 L 1082,615 L 1083,614 L 1083,613 L 1085,611 L 1086,611 L 1087,610 L 1098,610 L 1099,609 L 1099,608 L 1100,607 L 1111,607 L 1111,604 L 1112,603 L 1119,603 L 1123,599 L 1127,599 L 1127,597 L 1128,596 L 1130,596 L 1131,595 L 1132,595 L 1133,594 L 1135,594 L 1136,593 L 1151,593 L 1151,592 L 1152,591 L 1154,591 L 1155,590 L 1155,589 L 1157,587 L 1158,587 L 1159,586 L 1159,584 L 1160,583 L 1162,583 L 1163,582 L 1163,581 L 1165,579 L 1166,579 L 1167,578 L 1167,560 L 1168,559 L 1171,559 L 1172,560 L 1172,575 L 1178,575 L 1178,512 L 1177,511 L 1177,464 L 1175,464 L 1174,463 L 1174,448 L 1168,448 L 1167,447 L 1167,416 L 1166,416 L 1165,415 L 1165,413 L 1164,412 L 1163,412 L 1161,410 L 1161,408 L 1158,408 L 1157,407 L 1157,405 L 1156,404 L 1155,404 L 1153,402 L 1153,400 L 1152,400 L 1151,399 L 1151,392 L 1148,392 L 1147,391 L 1147,384 L 1141,384 L 1140,383 L 1140,368 L 1136,368 L 1135,367 L 1135,364 L 1133,364 L 1131,362 L 1131,360 L 1128,360 L 1127,359 L 1127,356 L 1125,356 L 1123,354 L 1123,352 L 1122,352 L 1121,351 L 1121,344 L 1117,344 L 1116,343 L 1116,341 L 1115,340 L 1115,339 L 1114,338 L 1114,336 L 1104,336 L 1103,335 L 1103,330 L 1096,330 L 1095,329 L 1095,328 L 1087,328 L 1083,324 L 1083,323 L 1080,320 L 1072,320 L 1071,319 L 1071,312 L 1066,312 L 1065,311 L 1065,304 L 1064,304 L 1064,307 L 1063,308 L 1024,308 L 1023,307 L 1023,306 L 1000,306 L 1000,307 L 999,308 L 992,308 L 992,310 L 991,311 L 984,311 L 983,312 L 968,312 L 968,316 L 967,317 L 965,317 L 964,318 L 964,319 L 963,320 L 952,320 L 952,323 L 951,324 L 949,322 L 949,320 L 950,319 L 950,315 L 950,318 L 949,319 L 948,318 L 948,317 L 946,315 L 946,313 L 947,312 L 948,312 L 949,313 L 949,312 L 947,312 L 946,313 L 945,312 L 945,309 L 944,308 L 944,304 L 944,305 L 943,306 L 942,305 L 942,304 L 941,303 L 941,302 L 942,301 L 942,300 L 943,299 L 943,298 L 943,299 L 942,300 L 942,301 L 941,302 L 940,301 L 940,298 L 939,298 L 938,297 L 939,296 L 938,296 L 937,295 L 937,293 L 935,291 L 935,290 L 936,289 L 936,288 L 935,287 L 936,288 L 936,289 L 935,290 L 933,288 L 933,286 L 934,285 L 934,284 L 933,283 L 933,282 L 933,283 L 932,284 L 930,282 L 930,280 L 929,279 L 929,278 L 926,275 L 926,274 L 925,273 L 925,272 L 924,271 L 924,269 L 923,269 L 922,268 L 922,267 L 920,265 L 920,264 L 919,263 L 919,262 L 917,260 L 917,259 L 915,257 L 915,255 L 913,253 L 913,252 L 912,252 L 911,251 L 911,250 L 908,247 L 908,246 L 906,244 L 906,243 L 904,241 L 904,240 L 903,239 L 903,238 L 902,238 L 901,237 L 901,235 L 900,235 L 899,234 L 899,232 L 898,232 L 897,231 L 897,230 L 896,229 L 895,229 L 894,228 L 894,227 L 891,224 L 891,223 L 889,221 L 889,220 L 888,220 L 886,218 L 886,217 L 879,210 L 879,209 L 873,203 L 873,202 L 872,202 L 869,199 L 869,198 L 868,198 L 867,197 L 867,196 L 866,196 L 865,195 L 865,194 L 864,194 L 863,193 L 863,192 L 862,192 L 851,181 L 850,181 L 849,180 L 849,179 L 848,179 L 847,178 L 847,177 L 846,177 L 841,172 L 840,172 L 836,168 L 835,168 L 834,167 L 834,166 L 833,166 L 831,164 L 830,164 L 827,161 L 826,161 L 825,160 L 824,160 L 823,159 L 823,158 L 822,157 L 821,157 L 820,156 L 819,156 L 815,152 L 814,152 L 812,150 L 811,150 L 809,148 L 808,148 L 805,145 L 804,145 L 803,144 L 802,144 L 799,141 L 798,141 L 797,140 L 796,140 L 794,138 L 793,138 L 792,137 L 791,137 L 789,135 L 788,135 L 786,133 L 785,133 L 783,131 L 781,131 L 779,129 L 778,129 L 777,128 L 776,128 L 775,127 L 774,127 L 773,126 L 772,126 L 771,125 L 770,125 L 769,124 L 768,124 L 767,123 L 767,122 L 765,122 L 764,121 L 763,121 L 762,120 L 760,120 L 759,119 L 758,119 L 757,118 L 756,118 L 755,117 L 754,117 L 753,116 L 752,116 L 751,115 L 750,115 L 749,114 L 748,114 L 747,113 L 745,113 L 744,112 L 743,112 L 742,111 L 741,111 L 740,110 L 738,110 L 737,109 L 736,109 L 735,108 L 734,108 L 733,107 L 731,107 L 730,106 L 728,106 L 727,105 L 725,105 L 724,104 L 723,104 L 722,103 L 721,103 L 720,102 L 717,102 L 716,101 L 714,101 L 713,100 L 710,100 L 709,99 L 709,98 L 708,99 L 707,99 L 706,98 L 704,98 L 703,97 L 701,97 L 700,96 L 698,96 L 697,95 L 695,95 L 694,94 L 691,94 L 690,93 L 688,93 L 687,92 L 684,92 L 683,91 L 681,91 L 680,90 L 673,90 L 672,89 L 672,88 L 671,89 L 669,89 L 668,88 L 664,88 L 663,87 L 661,87 L 660,86 L 655,86 L 654,85 L 649,85 L 648,84 L 647,85 L 646,84 L 641,84 L 640,83 L 634,83 L 633,82 L 623,82 L 622,81 L 609,81 L 608,80 L 572,80 L 571,81 L 558,81 L 557,82 L 544,82 L 543,83 L 538,83 L 537,84 L 532,84 L 531,85 L 524,85 L 523,86 L 520,86 L 519,87 L 514,87 L 513,88 L 509,88 L 508,89 L 505,89 L 504,88 L 505,89 L 504,90 L 500,90 L 499,91 L 497,91 L 496,92 L 492,92 L 491,93 L 489,93 L 488,92 L 489,93 L 488,94 L 484,94 L 483,95 L 480,95 L 479,96 L 477,96 L 476,97 L 474,97 L 473,96 L 472,96 L 473,96 L 474,97 L 473,98 L 470,98 L 469,97 L 466,97 L 468,97 L 469,98 L 468,99 L 467,99 L 465,101 L 462,101 L 461,100 L 458,100 L 458,101 L 459,101 L 460,102 L 459,103 L 456,103 L 455,104 L 453,104 L 452,105 L 450,105 L 449,104 L 445,104 L 444,105 L 442,105 L 441,104 L 440,104 L 439,103 L 439,100 L 437,100 L 435,98 L 435,96 L 432,96 L 431,95 L 431,88 L 429,88 L 427,86 L 427,85 L 426,84 L 425,84 L 423,82 L 423,79 L 416,79 L 415,78 L 415,73 L 416,72 L 423,72 L 407,72 L 403,68 L 403,67 L 400,64 L 394,64 L 393,63 L 393,56 L 386,56 L 385,55 L 385,48 L 376,48 L 375,47 L 375,44 L 373,44 L 371,42 L 371,40 L 368,40 L 367,39 L 367,37 L 366,36 L 365,36 L 363,34 L 363,33 L 362,32 L 358,32 L 357,31 L 357,29 L 356,28 L 355,28 L 353,26 L 353,24 L 352,24 L 351,23 L 351,22 L 344,22 L 343,21 L 343,18 L 336,18 L 335,17 L 335,16 L 331,12 L 331,11 L 328,8 L 328,11 L 327,12 L 320,12 L 319,11 L 319,10 L 312,10 L 311,9 L 311,8 L 304,8 L 303,7 L 303,6 L 296,6 L 295,5 L 295,4 L 288,4 L 287,3 L 287,2 L 248,2 L 247,1 L 247,0 Z" fill="black"/><path d="M 72,0 L 72,1 L 74,1 L 75,0 Z" fill="black"/></svg>